<?xml version="1.0" encoding="UTF-8"?>
<svg version="1.1" viewBox="0 0 960 960" width="240" height="240" xmlns="http://www.w3.org/2000/svg">
<path transform="translate(0)" d="m0 0h960v960h-960z" fill="#FEFEFE"/>
<path transform="translate(248,321)" d="m0 0h72v67l-6 12-1 3v10l3 10 7 8 11 4h8l9-3 7-6 4-8 1-5v-9l-4-10-3-6v-67h248v66l-6 12-1 4v10l3 10 7 8 10 4h8l10-3 7-6 4-8 1-5v-8l-4-11-3-5v-68h72l2 13 11 112 35 350v7l-3 6-4 5-4 2-6 1h-529l-8-4-5-6-1-3v-13l11-109 15-149 21-210z" fill="#FEFEFE"/>
<path transform="translate(465,107)" d="m0 0h30l24 4 21 7 17 8 17 11 11 9 10 9 10 11 11 16 8 14 8 20 5 19 3 24v25h88l10 2 6 7 2 5 4 34 13 132 33 330v10l-3 14-7 13-9 10-11 7-13 4-5 1-69 1h-122l-345-1-13-3-12-6-12-11-7-12-3-9-1-6v-15l11-111 21-209 15-150 3-23 4-8 6-5 4-1h92v-28l3-23 5-18 9-21 8-14 12-16 11-12 11-10 14-10 16-9 16-7 16-5zm-217 214-1 2-11 109-10 101-18 179-8 79v13l4 7 5 4 5 2h529l8-2 5-5 3-4 1-3-1-18-27-269-17-170-2-22-1-3h-72v68l6 12 1 4v8l-3 10-6 7-8 4-5 1h-8l-10-4-7-8-3-10v-10l4-10 3-6v-66h-248v67l6 12 1 4v9l-3 10-6 7-8 4-4 1h-8l-11-4-7-8-3-10v-10l4-10 3-5v-67z" fill="#010102"/>
<path transform="translate(468,143)" d="m0 0h23l22 4 15 5 19 10 13 10 8 7 7 8 9 12 8 14 6 15 4 15 2 19v22h-248v-28l3-19 6-18 8-16 11-15 9-10 10-9 15-10 16-8 16-5z" fill="#FEFEFE"/>
</svg>
